# xmcd
#
# Track frame offsets:
#	182
#	14549
#	26179
#	39864
#	50689
#	61294
#	74249
#	86279
#	104722
#	118594
#
# Disc length: 1812 seconds
#
# Revision: 1
# Processed by: cddbd v1.5.2PL0 Copyright (c) Steve Scherf et al.
# Submitted via: EZCDAudioConverter 4.0.5.1
#
DISCID=8d07120a
DTITLE=Hank Williams Jr. - Whiskey Bent and Hell Bound
DYEAR=2010
DGENRE=Country
TTITLE0=Whiskey Bent and Hell Bound
TTITLE1=Tired of Being Johnny B. Good
TTITLE2=Outlaw Women
TTITLE3=(I Don't Have) Anymore Love Songs
TTITLE4=White Lightnin
TTITLE5=Women I've Never Had
TTITLE6=O.D.'d in Denver
TTITLE7=Come and Go Blues
TTITLE8=Old Nashville Cowboys
TTITLE9=The Conversation
EXTD=
EXTT0=
EXTT1=
EXTT2=
EXTT3=
EXTT4=
EXTT5=
EXTT6=
EXTT7=
EXTT8=
EXTT9=
PLAYORDER=
